#N canvas 950 203 450 300 10;
#X msg 131 73 261.6;
#X obj 143 133 osc~;
#X obj 130 235 dac~;
#X obj 137 29 tgl 15 0 empty empty empty 17 7 0 10 -262144 -1 -1 1
1;
#X connect 0 0 1 0;
#X connect 1 0 2 0;
#X connect 1 0 2 1;
#X connect 3 0 0 0;
